<svg width="472" height="472" viewBox="0 0 472 472" fill="none" xmlns="http://www.w3.org/2000/svg">
<rect width="471.58" height="471.58" fill="#2280FF"/>
<g clip-path="url(#clip0_149_2699)">
<path d="M220.24 101.029C222.919 102.503 223.698 105.153 224.794 107.847C225.114 108.621 225.114 108.621 225.439 109.411C230.983 123.103 235.269 137.273 238.344 151.722C239.156 150.505 239.733 149.37 240.335 148.043C247.892 131.653 258.856 117.311 276.128 110.548C278.587 109.665 281.08 108.935 283.606 108.271C284.144 108.128 284.682 107.985 285.236 107.838C297.678 104.88 311.426 105.214 323.889 107.818C323.647 110.858 323.041 113.512 322.05 116.39C321.909 116.803 321.768 117.216 321.623 117.641C317.372 129.849 311.139 140.615 302.163 149.912C301.896 150.208 301.629 150.503 301.353 150.808C291.406 161.546 275.593 166.185 261.428 167.111C259.202 167.183 256.978 167.197 254.752 167.196C254.453 167.196 254.155 167.197 253.848 167.197C249.498 167.196 245.338 166.985 241.06 166.206C241.142 166.526 241.223 166.847 241.307 167.177C242.332 171.385 243.022 175.614 243.656 179.896C243.832 181.081 244.013 182.265 244.195 183.449C244.311 184.226 244.427 185.002 244.543 185.778C244.596 186.12 244.649 186.463 244.703 186.816C245.038 189.117 245.231 191.416 245.377 193.735C245.398 194.049 245.418 194.362 245.439 194.685C245.489 195.451 245.537 196.217 245.586 196.984C246.093 196.982 246.093 196.982 246.611 196.98C254.838 196.95 263.066 196.927 271.293 196.913C275.272 196.906 279.251 196.897 283.23 196.881C286.698 196.868 290.166 196.859 293.634 196.856C295.47 196.854 297.307 196.85 299.143 196.84C300.872 196.831 302.601 196.828 304.33 196.83C304.963 196.83 305.597 196.827 306.231 196.822C307.098 196.815 307.966 196.818 308.833 196.82C309.318 196.819 309.802 196.818 310.302 196.817C312.614 197.099 314.034 197.976 315.628 199.643C317.373 202.066 317.695 204.033 317.704 206.978C317.707 207.328 317.71 207.678 317.713 208.039C317.718 208.777 317.72 209.515 317.72 210.254C317.722 211.374 317.738 212.494 317.755 213.615C317.758 214.335 317.76 215.056 317.761 215.776C317.767 216.107 317.774 216.437 317.78 216.778C317.756 219.516 316.994 221.942 315.054 223.945C313.418 225.34 312.372 226.01 310.25 225.995C309.885 225.994 309.521 225.992 309.145 225.991C308.764 225.987 308.383 225.983 307.99 225.979C307.606 225.977 307.221 225.975 306.825 225.973C305.875 225.968 304.924 225.96 303.974 225.951C303.876 226.676 303.876 226.676 303.776 227.416C302.013 240.475 300.191 253.526 298.345 266.574C298.015 268.913 297.685 271.252 297.358 273.591C297.045 275.832 296.728 278.073 296.409 280.314C296.291 281.149 296.174 281.984 296.058 282.819C294.53 293.822 294.53 293.822 291.3 298.37C291.048 298.762 290.796 299.154 290.536 299.558C287.882 302.283 284.269 304.121 280.47 304.37C279.784 304.376 279.098 304.377 278.412 304.375C278.032 304.377 277.652 304.379 277.261 304.381C275.992 304.386 274.722 304.386 273.452 304.385C272.541 304.388 271.629 304.391 270.718 304.394C268.243 304.402 265.769 304.404 263.294 304.405C261.747 304.406 260.2 304.407 258.653 304.41C253.254 304.418 247.855 304.422 242.456 304.421C237.427 304.421 232.399 304.43 227.371 304.445C223.05 304.456 218.73 304.461 214.409 304.461C211.83 304.46 209.251 304.463 206.672 304.473C204.245 304.481 201.819 304.481 199.392 304.475C198.504 304.474 197.615 304.476 196.727 304.481C190.235 304.519 185.291 303.997 180.41 299.275C176.642 294.923 176.118 289.366 175.351 283.855C175.262 283.231 175.172 282.608 175.083 281.984C174.842 280.307 174.606 278.63 174.37 276.952C174.123 275.192 173.871 273.432 173.62 271.672C173.2 268.723 172.782 265.774 172.366 262.824C171.779 258.66 171.187 254.497 170.594 250.334C170.183 247.449 169.774 244.563 169.365 241.678C169.265 240.978 169.166 240.279 169.067 239.58C168.784 237.59 168.503 235.6 168.222 233.61C168.096 232.718 167.97 231.827 167.843 230.935C167.769 230.408 167.695 229.88 167.618 229.337C167.521 228.647 167.521 228.647 167.421 227.943C167.284 226.856 167.284 226.856 167.284 225.951C166.727 225.972 166.17 225.993 165.597 226.015C164.858 226.032 164.119 226.048 163.38 226.064C163.014 226.079 162.648 226.095 162.271 226.11C159.777 226.151 158.403 225.796 156.421 224.141C154.031 221.618 153.565 219.045 153.569 215.658C153.567 215.328 153.565 214.999 153.563 214.66C153.561 213.967 153.56 213.274 153.562 212.581C153.564 211.53 153.553 210.48 153.542 209.429C153.541 208.752 153.54 208.075 153.541 207.397C153.537 207.088 153.532 206.779 153.528 206.46C153.553 203.814 154.113 201.29 155.841 199.22C156.107 199.014 156.373 198.808 156.647 198.596C156.913 198.382 157.179 198.168 157.453 197.947C159.067 196.887 160.507 196.928 162.382 196.929C162.966 196.929 163.551 196.928 164.153 196.927C164.802 196.929 165.451 196.931 166.1 196.932C166.783 196.932 167.465 196.932 168.148 196.932C170.002 196.932 171.856 196.935 173.711 196.938C175.648 196.941 177.585 196.941 179.522 196.941C183.191 196.943 186.861 196.947 190.53 196.951C194.707 196.956 198.884 196.959 203.061 196.961C211.654 196.966 220.246 196.974 228.839 196.984C228.666 193.946 228.49 190.909 228.312 187.871C228.252 186.843 228.193 185.814 228.134 184.786C227.735 169.691 227.735 169.691 225.218 154.89C224.72 155.038 224.221 155.186 223.707 155.338C208 159.897 190.903 161.242 175.883 153.533C171.306 150.92 167.418 147.699 163.663 144.028C163.085 143.492 163.085 143.492 162.496 142.946C156.185 136.953 150.608 128.584 147.369 120.492C147.369 119.894 147.369 119.297 147.369 118.681C163.494 112.902 181.508 110.495 197.651 117.59C201.572 119.493 205.145 121.752 208.472 124.565C208.829 124.867 209.186 125.169 209.554 125.479C214.945 130.184 219.052 135.362 222.955 141.312C222.708 137.513 221.94 133.869 221.088 130.166C221.019 129.861 220.95 129.556 220.878 129.242C219.236 122.044 217.357 114.907 214.721 108.003C214.215 106.494 214.104 105.316 214.356 103.745C216.026 101.184 217.209 100.772 220.24 101.029ZM223.408 141.765C223.861 142.67 223.861 142.67 223.861 142.67L223.408 141.765Z" fill="#FFA242"/>
<path d="M162.124 196.924C162.655 196.922 163.185 196.921 163.732 196.919C164.611 196.92 164.611 196.92 165.508 196.92C166.134 196.919 166.761 196.918 167.387 196.916C169.113 196.912 170.839 196.912 172.564 196.911C174.424 196.91 176.283 196.907 178.143 196.904C182.211 196.898 186.279 196.895 190.347 196.893C192.886 196.892 195.425 196.89 197.964 196.888C204.991 196.882 212.019 196.878 219.046 196.876C219.496 196.876 219.946 196.876 220.409 196.876C221.086 196.876 221.086 196.876 221.776 196.876C222.69 196.875 223.604 196.875 224.518 196.875C225.198 196.875 225.198 196.875 225.891 196.875C233.239 196.873 240.586 196.865 247.933 196.854C255.473 196.844 263.013 196.838 270.553 196.838C274.788 196.837 279.023 196.835 283.258 196.826C286.864 196.819 290.469 196.817 294.075 196.821C295.915 196.823 297.755 196.822 299.595 196.816C301.28 196.81 302.964 196.811 304.648 196.816C305.547 196.817 306.445 196.812 307.343 196.806C308.145 196.811 308.145 196.811 308.963 196.815C309.423 196.815 309.883 196.815 310.357 196.815C312.636 197.109 314.057 198 315.628 199.643C317.373 202.066 317.695 204.033 317.704 206.978C317.707 207.328 317.71 207.678 317.713 208.039C317.718 208.777 317.72 209.515 317.72 210.254C317.722 211.374 317.738 212.494 317.755 213.615C317.758 214.335 317.76 215.056 317.761 215.776C317.767 216.107 317.774 216.437 317.78 216.778C317.756 219.516 316.994 221.942 315.054 223.945C313.15 225.568 312.084 226.008 309.628 226.012C308.828 226.015 308.828 226.015 308.012 226.018C307.126 226.018 307.126 226.018 306.222 226.018C305.592 226.019 304.962 226.021 304.333 226.023C302.596 226.027 300.859 226.029 299.122 226.03C297.251 226.032 295.38 226.036 293.509 226.04C288.987 226.049 284.466 226.054 279.944 226.058C277.816 226.06 275.688 226.062 273.561 226.065C266.489 226.072 259.418 226.079 252.347 226.082C250.511 226.083 248.675 226.084 246.84 226.085C246.155 226.085 246.155 226.085 245.457 226.085C238.063 226.089 230.668 226.101 223.274 226.115C215.687 226.13 208.1 226.138 200.513 226.14C196.251 226.141 191.99 226.145 187.728 226.156C184.099 226.166 180.47 226.17 176.841 226.165C174.989 226.163 173.137 226.164 171.285 226.173C169.59 226.181 167.895 226.181 166.2 226.174C165.295 226.172 164.391 226.179 163.487 226.187C158.599 226.152 158.599 226.152 156.421 224.141C154.031 221.618 153.565 219.045 153.569 215.658C153.567 215.328 153.565 214.999 153.563 214.66C153.561 213.967 153.56 213.274 153.562 212.581C153.564 211.53 153.553 210.48 153.542 209.429C153.541 208.752 153.54 208.075 153.541 207.397C153.537 207.088 153.532 206.779 153.528 206.46C153.553 203.814 154.113 201.29 155.841 199.22C156.107 199.014 156.373 198.808 156.647 198.596C157.046 198.275 157.046 198.275 157.453 197.947C158.991 196.937 160.339 196.926 162.124 196.924Z" fill="#FFC268"/>
<path d="M177.146 226.802C177.556 226.796 177.965 226.791 178.387 226.786C179.065 226.787 179.065 226.787 179.757 226.789C180.24 226.786 180.723 226.781 181.207 226.777C182.538 226.766 183.869 226.763 185.2 226.762C186.635 226.76 188.069 226.749 189.504 226.74C192.642 226.721 195.78 226.713 198.918 226.707C200.877 226.703 202.835 226.697 204.794 226.691C210.215 226.674 215.636 226.66 221.057 226.655C221.404 226.655 221.751 226.654 222.109 226.654C222.631 226.654 222.631 226.654 223.163 226.653C223.868 226.652 224.573 226.652 225.278 226.651C225.803 226.651 225.803 226.651 226.338 226.65C232.006 226.645 237.674 226.621 243.342 226.589C249.158 226.556 254.975 226.539 260.791 226.537C264.058 226.536 267.325 226.528 270.592 226.503C273.373 226.481 276.155 226.474 278.936 226.486C280.356 226.491 281.775 226.49 283.195 226.47C284.494 226.453 285.793 226.454 287.093 226.471C287.786 226.475 288.479 226.459 289.172 226.442C289.79 226.455 289.79 226.455 290.421 226.469C290.776 226.468 291.131 226.468 291.497 226.467C293.254 227.365 294.351 230.087 295.563 235.102C296.909 242.499 297.157 248.505 297.164 257.499C297.166 258.567 297.169 259.635 297.171 260.736C297.175 262.99 297.176 265.245 297.176 267.499C297.178 270.921 297.19 274.34 297.204 277.761C297.206 279.96 297.207 282.16 297.208 284.36C297.213 285.369 297.218 286.379 297.223 287.419C297.204 295.779 296.616 303.186 295.12 309.302C293.651 314.257 292.828 315.598 290.934 315.612C290.317 315.621 290.317 315.621 289.688 315.63C289.004 315.63 289.004 315.63 288.307 315.629C287.821 315.634 287.335 315.639 286.849 315.645C285.509 315.659 284.169 315.664 282.829 315.667C281.386 315.673 279.943 315.686 278.499 315.698C275.011 315.726 271.523 315.739 268.035 315.752C266.394 315.758 264.752 315.765 263.111 315.772C257.656 315.796 252.201 315.816 246.746 315.826C245.33 315.829 243.914 315.831 242.498 315.834C241.97 315.835 241.97 315.835 241.431 315.836C235.727 315.847 230.023 315.882 224.319 315.927C218.466 315.973 212.613 315.998 206.761 316.002C203.473 316.005 200.186 316.017 196.898 316.053C194.099 316.083 191.299 316.094 188.5 316.08C187.071 316.074 185.642 316.077 184.214 316.104C182.906 316.128 181.598 316.127 180.29 316.105C179.593 316.1 178.895 316.123 178.198 316.146C174.428 316.038 174.428 316.038 172.747 309.898C170.904 302.197 170.544 294.341 170.547 283.998C170.546 282.993 170.544 281.988 170.543 280.953C170.541 278.837 170.54 276.721 170.542 274.605C170.543 271.396 170.535 268.189 170.526 264.981C170.525 262.913 170.525 260.846 170.525 258.778C170.522 257.833 170.519 256.889 170.516 255.916C170.535 247.836 170.966 240.132 172.3 233.812C172.505 233.183 172.71 232.554 172.922 231.906C173.229 230.926 173.229 230.926 173.544 229.925C174.73 226.842 175.769 226.808 177.146 226.802Z" fill="#FFA242"/>
<path d="M204.833 401.988C204.833 401.988 200.801 401.591 198.996 398.583C197.537 396.151 197.848 396.829 197.059 394.828C187.313 370.086 177.593 345.333 167.867 320.583C167.867 320.583 167.717 320.917 167.776 319.548C151.461 272.123 135.368 225.966 118.629 180.045C104.652 141.702 89.9178 103.635 75.5193 65.4464C75.5193 65.4464 75.6581 65.4274 77.0409 64.7304C96.2733 63.8237 114.161 64.2423 131.958 63.1644C142.347 62.5351 147.32 66.0419 150.734 75.8465C169.335 129.259 188.42 182.504 207.598 235.713C217.058 261.955 227.078 287.996 237.86 316.849C240.483 310.544 241.86 307.631 242.928 304.608C270.067 227.784 297.076 150.915 324.529 74.2034C326.153 69.664 331.11 63.2556 334.826 63.0394C354.168 61.9146 373.61 62.5153 394.59 62.5153C392.009 70.5133 390.154 76.6206 388.074 82.65C351.143 189.693 315.721 288.628 278.768 395.664C278.768 395.664 276.822 401.988 273.417 401.988C260.284 401.988 229.373 402.191 204.833 401.988Z" fill="white"/>
<path d="M220.24 101.03C222.918 102.503 223.698 105.154 224.794 107.847C225.113 108.621 225.113 108.621 225.439 109.411C230.983 123.104 235.269 137.273 238.344 151.722C239.156 150.505 239.733 149.371 240.335 148.043C247.892 131.653 258.856 117.312 276.127 110.548C278.587 109.666 281.08 108.936 283.606 108.271C284.144 108.128 284.682 107.986 285.236 107.838C297.678 104.881 311.426 105.214 323.889 107.819C323.647 110.858 323.041 113.512 322.05 116.39C321.909 116.803 321.768 117.216 321.623 117.642C317.372 129.849 311.139 140.615 302.163 149.912C301.896 150.208 301.629 150.504 301.353 150.808C291.406 161.547 275.593 166.185 261.428 167.111C259.202 167.183 256.978 167.197 254.752 167.196C254.453 167.197 254.155 167.197 253.848 167.197C249.497 167.197 245.338 166.985 241.06 166.206C241.142 166.527 241.223 166.847 241.307 167.177C242.332 171.385 243.022 175.614 243.656 179.896C243.831 181.081 244.013 182.266 244.195 183.45C244.311 184.226 244.427 185.002 244.543 185.778C244.596 186.121 244.649 186.463 244.703 186.816C245.198 190.218 245.355 193.516 245.586 196.984C240.06 196.984 234.533 196.984 228.839 196.984C228.762 195.555 228.685 194.126 228.606 192.654C228.081 183.161 227.512 173.684 226.52 164.226C226.481 163.852 226.442 163.477 226.402 163.092C226.047 158.949 226.047 158.949 225.218 154.891C224.72 155.038 224.221 155.186 223.707 155.338C208 159.897 190.903 161.242 175.883 153.533C171.306 150.92 167.418 147.699 163.663 144.028C163.085 143.492 163.085 143.492 162.496 142.946C156.185 136.953 150.608 128.584 147.369 120.492C147.369 119.895 147.369 119.297 147.369 118.682C163.494 112.902 181.508 110.495 197.651 117.591C201.572 119.493 205.145 121.752 208.472 124.566C208.829 124.867 209.186 125.169 209.554 125.48C214.945 130.184 219.052 135.363 222.955 141.312C222.708 137.514 221.94 133.87 221.088 130.167C221.019 129.862 220.949 129.557 220.878 129.242C219.236 122.044 217.357 114.907 214.721 108.003C214.215 106.495 214.104 105.316 214.356 103.745C216.026 101.184 217.209 100.773 220.24 101.03ZM223.408 141.765C223.861 142.67 223.861 142.67 223.861 142.67L223.408 141.765Z" fill="#6AF2A2"/>
<path d="M208.472 124.566C209.007 125.018 209.007 125.018 209.554 125.48C213.889 129.263 217.588 133.384 220.919 138.059C221.147 138.378 221.375 138.698 221.61 139.026C223.611 141.902 224.845 144.592 225.303 148.102C225.375 148.625 225.447 149.147 225.521 149.686C225.672 151.28 225.698 152.838 225.671 154.438C223.116 155.637 220.586 156.343 217.835 156.956C217.396 157.054 216.958 157.152 216.506 157.252C202.081 160.362 186.138 160.064 173.3 151.98C169.757 149.658 166.685 146.983 163.663 144.028C163.085 143.493 163.085 143.493 162.496 142.946C156.185 136.953 150.608 128.584 147.369 120.492C147.369 119.895 147.369 119.297 147.369 118.682C167.588 111.435 191.06 109.84 208.472 124.566Z" fill="#6AF2A2"/>
<path d="M220.24 101.03C222.919 102.503 223.698 105.154 224.794 107.847C225.007 108.363 225.22 108.879 225.44 109.411C230.479 121.858 234.256 134.614 237.439 147.649C237.547 148.086 237.654 148.524 237.764 148.974C238.852 153.596 237.519 157.254 236.082 161.68C235.769 162.734 235.472 163.79 235.176 164.848C237.118 165.147 239.06 165.446 241.06 165.754C242.298 171.624 243.337 177.495 244.168 183.437C244.345 184.699 244.527 185.96 244.71 187.222C244.825 188.037 244.941 188.851 245.056 189.666C245.137 190.223 245.137 190.223 245.219 190.791C245.267 191.142 245.316 191.493 245.366 191.855C245.409 192.158 245.451 192.461 245.496 192.774C245.618 194.172 245.586 195.58 245.586 196.984C240.06 196.984 234.534 196.984 228.84 196.984C228.773 195.66 228.707 194.336 228.638 192.972C227.462 170.492 225.727 148.263 220.24 126.376C220.109 125.852 220.109 125.852 219.975 125.318C218.528 119.575 216.944 113.936 214.792 108.411C214.313 106.765 214.221 105.452 214.356 103.745C216.027 101.184 217.209 100.773 220.24 101.03Z" fill="#479C62"/>
</g>
<defs>
<clipPath id="clip0_149_2699">
<rect width="319.067" height="319.067" fill="white" transform="translate(76.3259 76.1868)"/>
</clipPath>
</defs>
</svg>
