<svg width="60" height="60" viewBox="0 0 60 60" fill="none" xmlns="http://www.w3.org/2000/svg">
<rect width="60" height="60" rx="10" fill="#2280FF"/>
<g clip-path="url(#clip0_187_101)">
<g clip-path="url(#clip1_187_101)">
<path d="M28.0215 12.8543C28.3623 13.0419 28.4615 13.379 28.601 13.7217C28.6416 13.8203 28.6416 13.8203 28.6831 13.9208C29.3884 15.6629 29.9337 17.4657 30.325 19.3041C30.4282 19.1492 30.5017 19.0049 30.5783 18.836C31.5398 16.7506 32.9347 14.9259 35.1322 14.0654C35.4451 13.9531 35.7623 13.8602 36.0837 13.7757C36.1521 13.7575 36.2206 13.7394 36.2911 13.7206C37.8742 13.3443 39.6233 13.3867 41.2089 13.7181C41.1782 14.1048 41.1011 14.4425 40.975 14.8087C40.9571 14.8612 40.9392 14.9138 40.9207 14.9679C40.3798 16.5211 39.5867 17.8909 38.4448 19.0737C38.4108 19.1114 38.3768 19.149 38.3417 19.1878C37.0761 20.554 35.0642 21.1442 33.2619 21.262C32.9787 21.2712 32.6958 21.273 32.4125 21.2728C32.3746 21.2729 32.3367 21.2729 32.2976 21.273C31.744 21.2729 31.2148 21.246 30.6705 21.1469C30.6809 21.1876 30.6913 21.2284 30.702 21.2704C30.8324 21.8058 30.9202 22.3439 31.0008 22.8887C31.0231 23.0395 31.0462 23.1901 31.0693 23.3408C31.0842 23.4396 31.0989 23.5383 31.1137 23.6371C31.1204 23.6806 31.1271 23.7242 31.134 23.7691C31.1767 24.0619 31.2011 24.3544 31.2198 24.6495C31.2224 24.6894 31.225 24.7292 31.2276 24.7703C31.234 24.8678 31.2402 24.9653 31.2464 25.0628C31.3109 25.0626 31.3109 25.0626 31.3767 25.0623C32.4235 25.0585 33.4703 25.0556 34.5172 25.0538C35.0234 25.053 35.5296 25.0517 36.0359 25.0498C36.4771 25.048 36.9184 25.0469 37.3596 25.0465C37.5933 25.0463 37.8269 25.0458 38.0605 25.0445C38.2805 25.0434 38.5004 25.043 38.7204 25.0433C38.8011 25.0432 38.8817 25.0429 38.9624 25.0422C39.0727 25.0413 39.183 25.0417 39.2933 25.042C39.355 25.0419 39.4167 25.0417 39.4803 25.0415C39.7745 25.0775 39.9551 25.1891 40.158 25.4011C40.3799 25.7094 40.4209 25.9596 40.4221 26.3344C40.4225 26.3789 40.4228 26.4235 40.4232 26.4693C40.4238 26.5633 40.4241 26.6572 40.4241 26.7512C40.4243 26.8937 40.4264 27.0362 40.4286 27.1788C40.4289 27.2705 40.4292 27.3621 40.4293 27.4538C40.4301 27.4958 40.4309 27.5379 40.4318 27.5813C40.4287 27.9296 40.3317 28.2383 40.0849 28.4932C39.8767 28.6706 39.7437 28.7559 39.4737 28.754C39.4273 28.7538 39.3809 28.7536 39.3331 28.7534C39.2846 28.7529 39.2361 28.7525 39.1862 28.752C39.1373 28.7517 39.0884 28.7514 39.038 28.7512C38.917 28.7505 38.7961 28.7495 38.6751 28.7484C38.6627 28.8407 38.6627 28.8407 38.65 28.9348C38.4256 30.5963 38.1938 32.2568 37.959 33.9169C37.9169 34.2144 37.875 34.512 37.8334 34.8097C37.7936 35.0949 37.7533 35.38 37.7127 35.6651C37.6976 35.7713 37.6827 35.8775 37.668 35.9838C37.4736 37.3837 37.4735 37.3837 37.0627 37.9623C37.0306 38.0122 36.9985 38.0621 36.9655 38.1135C36.6278 38.4603 36.168 38.6941 35.6848 38.7257C35.5975 38.7265 35.5102 38.7267 35.4229 38.7263C35.3746 38.7266 35.3262 38.7269 35.2764 38.7271C35.1149 38.7279 34.9534 38.7278 34.7919 38.7277C34.6759 38.728 34.5599 38.7284 34.4439 38.7288C34.1291 38.7299 33.8142 38.7301 33.4994 38.7302C33.3026 38.7303 33.1058 38.7305 32.9089 38.7308C32.222 38.7319 31.5351 38.7324 30.8481 38.7323C30.2083 38.7322 29.5686 38.7334 28.9288 38.7352C28.3791 38.7367 27.8294 38.7374 27.2796 38.7373C26.9515 38.7373 26.6234 38.7376 26.2953 38.7388C25.9865 38.7399 25.6778 38.7399 25.369 38.7391C25.256 38.739 25.1429 38.7392 25.0299 38.7399C24.204 38.7447 23.5749 38.6784 22.9538 38.0775C22.4745 37.5238 22.4078 36.8167 22.3102 36.1156C22.2989 36.0362 22.2875 35.9569 22.2761 35.8776C22.2455 35.6642 22.2154 35.4508 22.1855 35.2373C22.1539 35.0134 22.1219 34.7895 22.09 34.5656C22.0366 34.1903 21.9834 33.8151 21.9304 33.4397C21.8557 32.91 21.7804 32.3803 21.705 31.8506C21.6528 31.4835 21.6007 31.1164 21.5486 30.7493C21.5359 30.6603 21.5233 30.5713 21.5107 30.4824C21.4748 30.2292 21.4389 29.976 21.4032 29.7228C21.3872 29.6094 21.3711 29.4959 21.355 29.3825C21.3455 29.3154 21.3361 29.2483 21.3264 29.1792C21.314 29.0914 21.314 29.0914 21.3013 29.0019C21.2838 28.8635 21.2838 28.8635 21.2838 28.7484C21.213 28.751 21.1422 28.7537 21.0692 28.7565C20.9752 28.7586 20.8812 28.7607 20.7871 28.7628C20.7406 28.7647 20.694 28.7666 20.6461 28.7686C20.3288 28.7738 20.154 28.7286 19.9017 28.518C19.5977 28.1971 19.5383 27.8697 19.5389 27.4387C19.5386 27.3968 19.5384 27.355 19.5381 27.3118C19.5378 27.2236 19.5378 27.1355 19.538 27.0473C19.5382 26.9136 19.5368 26.7799 19.5354 26.6462C19.5353 26.5601 19.5352 26.4739 19.5353 26.3877C19.5347 26.3484 19.5342 26.309 19.5337 26.2685C19.5368 25.9318 19.6081 25.6107 19.8279 25.3474C19.8618 25.3212 19.8956 25.2949 19.9305 25.268C19.9644 25.2407 19.9982 25.2135 20.0331 25.1854C20.2384 25.0505 20.4216 25.0557 20.6601 25.0559C20.7345 25.0558 20.8088 25.0557 20.8855 25.0556C20.9681 25.0558 21.0507 25.056 21.1332 25.0563C21.2201 25.0563 21.3069 25.0563 21.3937 25.0562C21.6297 25.0562 21.8656 25.0566 22.1015 25.057C22.348 25.0573 22.5945 25.0574 22.8409 25.0574C23.3078 25.0576 23.7746 25.0581 24.2415 25.0586C24.7729 25.0593 25.3043 25.0596 25.8358 25.0599C26.9291 25.0605 28.0224 25.0615 29.1157 25.0628C29.0936 24.6763 29.0712 24.2898 29.0486 23.9034C29.0409 23.7725 29.0334 23.6417 29.0259 23.5108C28.9752 21.5902 28.9752 21.5902 28.655 19.7072C28.5915 19.726 28.528 19.7448 28.4626 19.7641C26.4643 20.3441 24.289 20.5153 22.378 19.5344C21.7955 19.202 21.301 18.7922 20.8231 18.3251C20.7496 18.257 20.7496 18.257 20.6746 18.1874C19.8717 17.4249 19.1621 16.3602 18.75 15.3306C18.75 15.2546 18.75 15.1786 18.75 15.1002C20.8016 14.3649 23.0936 14.0587 25.1475 14.9614C25.6464 15.2035 26.101 15.4909 26.5242 15.8489C26.5697 15.8872 26.6151 15.9256 26.6619 15.9652C27.3478 16.5637 27.8704 17.2226 28.367 17.9796C28.3356 17.4963 28.2378 17.0326 28.1295 16.5615C28.1206 16.5227 28.1118 16.4839 28.1027 16.4439C27.8938 15.5281 27.6547 14.62 27.3194 13.7416C27.255 13.5497 27.2409 13.3997 27.2729 13.1999C27.4854 12.874 27.6359 12.8217 28.0215 12.8543ZM28.4246 18.0372C28.4822 18.1523 28.4822 18.1523 28.4822 18.1523L28.4246 18.0372Z" fill="#FFA242"/>
<path d="M20.6273 25.0553C20.6948 25.0551 20.7624 25.0548 20.8319 25.0546C20.9438 25.0547 20.9438 25.0547 21.0579 25.0548C21.1376 25.0546 21.2173 25.0544 21.297 25.0542C21.5165 25.0538 21.7361 25.0537 21.9557 25.0536C22.1923 25.0535 22.4289 25.0531 22.6654 25.0527C23.183 25.0519 23.7006 25.0516 24.2181 25.0513C24.5412 25.0512 24.8642 25.0509 25.1873 25.0507C26.0814 25.05 26.9755 25.0494 27.8696 25.0492C27.9268 25.0492 27.9841 25.0491 28.0431 25.0491C28.1291 25.0491 28.1291 25.0491 28.2169 25.0491C28.3332 25.0491 28.4495 25.049 28.5658 25.049C28.6523 25.049 28.6523 25.049 28.7406 25.049C29.6754 25.0488 30.6102 25.0477 31.545 25.0464C32.5044 25.045 33.4637 25.0443 34.423 25.0443C34.9618 25.0442 35.5006 25.0439 36.0394 25.0428C36.4982 25.0419 36.9569 25.0416 37.4157 25.0421C37.6498 25.0423 37.8839 25.0423 38.1181 25.0415C38.3324 25.0408 38.5467 25.0408 38.761 25.0415C38.8753 25.0417 38.9896 25.041 39.1039 25.0403C39.2058 25.0409 39.2058 25.0409 39.3099 25.0414C39.3684 25.0414 39.427 25.0414 39.4873 25.0413C39.7772 25.0787 39.9581 25.1922 40.158 25.4012C40.3799 25.7094 40.4209 25.9597 40.4221 26.3345C40.4224 26.379 40.4228 26.4235 40.4232 26.4694C40.4238 26.5633 40.4241 26.6573 40.4241 26.7512C40.4243 26.8938 40.4264 27.0363 40.4286 27.1788C40.4289 27.2705 40.4292 27.3622 40.4293 27.4538C40.4301 27.4959 40.4309 27.538 40.4318 27.5813C40.4287 27.9297 40.3317 28.2384 40.0849 28.4932C39.8426 28.6997 39.707 28.7556 39.3945 28.7562C39.2928 28.7565 39.2928 28.7565 39.189 28.7569C39.0762 28.7569 39.0762 28.7569 38.9612 28.7569C38.8811 28.7571 38.8009 28.7573 38.7208 28.7575C38.4998 28.7581 38.2788 28.7583 38.0578 28.7585C37.8197 28.7587 37.5817 28.7593 37.3436 28.7598C36.7684 28.7609 36.1931 28.7615 35.6178 28.762C35.3471 28.7622 35.0764 28.7626 34.8056 28.7629C33.9059 28.7638 33.0063 28.7647 32.1066 28.7651C31.873 28.7652 31.6394 28.7653 31.4059 28.7654C31.3188 28.7655 31.3188 28.7655 31.2299 28.7655C30.2892 28.766 29.3484 28.7674 28.4076 28.7693C27.4423 28.7712 26.477 28.7723 25.5116 28.7724C24.9694 28.7726 24.4272 28.7731 23.885 28.7745C23.4233 28.7758 22.9616 28.7763 22.4999 28.7757C22.2642 28.7754 22.0286 28.7755 21.7929 28.7767C21.5772 28.7777 21.3616 28.7776 21.1459 28.7767C21.0308 28.7765 20.9158 28.7775 20.8007 28.7784C20.1789 28.7739 20.1789 28.7739 19.9017 28.5181C19.5977 28.1971 19.5383 27.8698 19.5389 27.4388C19.5386 27.3969 19.5384 27.355 19.5381 27.3119C19.5378 27.2237 19.5378 27.1355 19.538 27.0473C19.5382 26.9136 19.5368 26.78 19.5354 26.6463C19.5353 26.5601 19.5352 26.474 19.5353 26.3878C19.5347 26.3484 19.5342 26.3091 19.5337 26.2685C19.5368 25.9318 19.6081 25.6108 19.8279 25.3474C19.8618 25.3212 19.8956 25.295 19.9305 25.268C19.9813 25.2271 19.9813 25.2271 20.0331 25.1854C20.2287 25.057 20.4002 25.0556 20.6273 25.0553Z" fill="#FFC268"/>
<path d="M22.5387 28.8566C22.5907 28.8559 22.6428 28.8552 22.6965 28.8545C22.7828 28.8548 22.7828 28.8548 22.8708 28.855C22.9323 28.8546 22.9938 28.854 23.0553 28.8534C23.2246 28.852 23.394 28.8517 23.5634 28.8516C23.7459 28.8512 23.9284 28.8499 24.1109 28.8487C24.5102 28.8463 24.9094 28.8453 25.3087 28.8445C25.5579 28.844 25.8071 28.8433 26.0563 28.8425C26.7461 28.8403 27.4358 28.8385 28.1255 28.8379C28.1697 28.8379 28.2138 28.8379 28.2593 28.8378C28.3257 28.8378 28.3257 28.8378 28.3935 28.8377C28.4832 28.8376 28.5729 28.8375 28.6626 28.8375C28.7293 28.8374 28.7293 28.8374 28.7974 28.8373C29.5185 28.8366 30.2397 28.8336 30.9608 28.8295C31.7009 28.8253 32.4409 28.8231 33.1809 28.8229C33.5966 28.8228 34.0122 28.8217 34.4279 28.8186C34.7818 28.8158 35.1357 28.8149 35.4896 28.8164C35.6702 28.8171 35.8508 28.8169 36.0314 28.8145C36.1967 28.8122 36.362 28.8124 36.5273 28.8146C36.6155 28.8151 36.7037 28.813 36.7918 28.8108C36.8705 28.8125 36.8705 28.8125 36.9508 28.8143C36.9959 28.8142 37.0411 28.8141 37.0876 28.814C37.3113 28.9282 37.4508 29.2745 37.605 29.9127C37.7762 30.8538 37.8079 31.6179 37.8087 32.7623C37.809 32.8982 37.8093 33.0341 37.8096 33.1741C37.8101 33.4609 37.8103 33.7478 37.8103 34.0346C37.8105 34.4699 37.8121 34.9049 37.8138 35.3402C37.814 35.6201 37.8142 35.9 37.8143 36.1798C37.8149 36.3083 37.8156 36.4367 37.8162 36.569C37.8139 37.6327 37.739 38.5751 37.5487 39.3532C37.3618 39.9837 37.2571 40.1544 37.016 40.156C36.9376 40.1572 36.9376 40.1572 36.8575 40.1584C36.7705 40.1584 36.7705 40.1584 36.6818 40.1583C36.62 40.1589 36.5582 40.1596 36.4963 40.1603C36.3258 40.162 36.1554 40.1627 35.9849 40.1632C35.8012 40.1638 35.6176 40.1655 35.434 40.1671C34.9902 40.1705 34.5464 40.1723 34.1026 40.1739C33.8938 40.1746 33.6849 40.1756 33.4761 40.1765C32.7821 40.1795 32.088 40.182 31.394 40.1833C31.2138 40.1837 31.0336 40.184 30.8535 40.1843C30.7863 40.1845 30.7863 40.1845 30.7177 40.1846C29.992 40.1861 29.2663 40.1905 28.5405 40.1962C27.7959 40.202 27.0512 40.2052 26.3065 40.2058C25.8882 40.2061 25.47 40.2077 25.0517 40.2122C24.6955 40.216 24.3393 40.2174 23.9832 40.2157C23.8014 40.2149 23.6196 40.2152 23.4379 40.2186C23.2715 40.2217 23.1051 40.2216 22.9387 40.2188C22.8499 40.2182 22.7612 40.2211 22.6725 40.224C22.1927 40.2103 22.1927 40.2103 21.9789 39.4291C21.7444 38.4492 21.6986 37.4497 21.699 36.1338C21.6988 36.006 21.6986 35.8781 21.6984 35.7464C21.6982 35.4771 21.6982 35.2079 21.6984 34.9387C21.6985 34.5304 21.6975 34.1224 21.6963 33.7142C21.6962 33.4511 21.6962 33.1881 21.6962 32.925C21.6958 32.8048 21.6954 32.6846 21.695 32.5608C21.6974 31.5329 21.7524 30.5526 21.922 29.7485C21.9481 29.6685 21.9742 29.5885 22.0011 29.5061C22.0403 29.3813 22.0403 29.3813 22.0803 29.254C22.2312 28.8617 22.3634 28.8574 22.5387 28.8566Z" fill="#FFA242"/>
</g>
<path d="M26.0613 51.1459C26.0613 51.1459 25.5482 51.0954 25.3186 50.7127C25.133 50.4033 25.1725 50.4896 25.0722 50.235C23.8322 47.087 22.5955 43.9377 21.358 40.7886C21.358 40.7886 21.3389 40.8312 21.3464 40.657C19.2707 34.6231 17.2231 28.7504 15.0933 22.9077C13.315 18.0293 11.4404 13.186 9.60846 8.32716C9.60846 8.32716 9.62612 8.32474 9.80205 8.23606C12.249 8.1207 14.5249 8.17396 16.7893 8.03682C18.1111 7.95675 18.7438 8.40293 19.1782 9.65038C21.5448 16.4461 23.973 23.2206 26.4131 29.9904C27.6166 33.3294 28.8915 36.6426 30.2634 40.3135C30.597 39.5114 30.7723 39.1407 30.9081 38.7561C34.3611 28.9817 37.7976 19.2014 41.2904 9.44132C41.4971 8.86377 42.1277 8.04841 42.6005 8.02091C45.0614 7.87779 47.5351 7.95423 50.2044 7.95423C49.876 8.97183 49.6401 9.74887 49.3754 10.516C44.6766 24.1353 40.1697 36.723 35.4681 50.3414C35.4681 50.3414 35.2206 51.1459 34.7874 51.1459C33.1164 51.1459 29.1835 51.1717 26.0613 51.1459Z" fill="white"/>
<path d="M28.0215 12.8546C28.3623 13.0421 28.4615 13.3793 28.601 13.722C28.6416 13.8205 28.6416 13.8205 28.6831 13.921C29.3884 15.6631 29.9337 17.4659 30.325 19.3043C30.4282 19.1494 30.5017 19.0051 30.5783 18.8362C31.5398 16.7509 32.9347 14.9262 35.1322 14.0656C35.4451 13.9534 35.7623 13.8605 36.0837 13.776C36.1521 13.7578 36.2206 13.7396 36.2911 13.7209C37.8742 13.3446 39.6233 13.387 41.2089 13.7184C41.1782 14.1051 41.101 14.4428 40.975 14.8089C40.9571 14.8615 40.9392 14.914 40.9207 14.9682C40.3798 16.5213 39.5867 17.8911 38.4448 19.074C38.4108 19.1116 38.3768 19.1493 38.3417 19.188C37.0761 20.5543 35.0642 21.1444 33.2619 21.2623C32.9787 21.2714 32.6958 21.2732 32.4125 21.2731C32.3746 21.2731 32.3366 21.2732 32.2976 21.2732C31.744 21.2732 31.2148 21.2462 30.6705 21.1471C30.6809 21.1879 30.6913 21.2286 30.702 21.2706C30.8324 21.8061 30.9202 22.3441 31.0007 22.8889C31.0231 23.0397 31.0462 23.1904 31.0693 23.3411C31.0841 23.4398 31.0989 23.5386 31.1136 23.6373C31.1204 23.6809 31.1271 23.7245 31.134 23.7694C31.197 24.2022 31.2169 24.6217 31.2464 25.063C30.5432 25.063 29.8401 25.063 29.1156 25.063C29.1058 24.8812 29.096 24.6994 29.086 24.5121C29.0192 23.3043 28.9468 22.0985 28.8205 20.8952C28.8156 20.8475 28.8106 20.7999 28.8055 20.7508C28.7604 20.2238 28.7604 20.2238 28.6549 19.7074C28.5915 19.7262 28.528 19.745 28.4626 19.7644C26.4642 20.3444 24.289 20.5155 22.378 19.5347C21.7955 19.2022 21.301 18.7924 20.8231 18.3254C20.7496 18.2572 20.7496 18.2572 20.6746 18.1877C19.8717 17.4252 19.1621 16.3604 18.75 15.3308C18.75 15.2548 18.75 15.1788 18.75 15.1005C20.8016 14.3651 23.0936 14.0589 25.1475 14.9617C25.6464 15.2038 26.101 15.4912 26.5242 15.8491C26.5697 15.8875 26.6151 15.9259 26.6619 15.9654C27.3478 16.564 27.8704 17.2228 28.367 17.9798C28.3356 17.4965 28.2378 17.0329 28.1295 16.5617C28.1206 16.5229 28.1118 16.4841 28.1027 16.4441C27.8938 15.5283 27.6547 14.6202 27.3194 13.7418C27.255 13.5499 27.2409 13.4 27.2729 13.2001C27.4854 12.8742 27.6359 12.8219 28.0215 12.8546ZM28.4246 18.0374C28.4822 18.1526 28.4822 18.1526 28.4822 18.1526L28.4246 18.0374Z" fill="#6AF2A2"/>
<path d="M26.5242 15.8491C26.5924 15.9067 26.5924 15.9067 26.6619 15.9654C27.2134 16.4467 27.6841 16.9711 28.1079 17.5659C28.1369 17.6065 28.166 17.6471 28.1959 17.689C28.4504 18.0548 28.6074 18.3971 28.6657 18.8436C28.6749 18.9101 28.684 18.9767 28.6934 19.0452C28.7127 19.2481 28.7159 19.4462 28.7125 19.6498C28.3874 19.8024 28.0656 19.8922 27.7156 19.9702C27.6597 19.9826 27.6039 19.9951 27.5464 20.0079C25.7112 20.4035 23.6826 20.3656 22.0492 19.3371C21.5985 19.0416 21.2077 18.7012 20.8231 18.3253C20.7496 18.2572 20.7496 18.2572 20.6746 18.1877C19.8717 17.4252 19.1621 16.3604 18.75 15.3308C18.75 15.2548 18.75 15.1788 18.75 15.1005C21.3225 14.1784 24.3089 13.9755 26.5242 15.8491Z" fill="#6AF2A2"/>
<path d="M28.0215 12.8546C28.3624 13.0421 28.4616 13.3793 28.601 13.722C28.6281 13.7877 28.6552 13.8533 28.6831 13.921C29.3243 15.5046 29.8048 17.1276 30.2099 18.7861C30.2235 18.8417 30.2372 18.8973 30.2512 18.9547C30.3896 19.5427 30.22 20.0081 30.0371 20.5713C29.9974 20.7053 29.9595 20.8397 29.9219 20.9744C30.169 21.0124 30.416 21.0504 30.6705 21.0895C30.828 21.8365 30.9602 22.5834 31.0659 23.3394C31.0884 23.5 31.1116 23.6605 31.1348 23.821C31.1496 23.9246 31.1643 24.0283 31.1789 24.132C31.1892 24.2028 31.1892 24.2028 31.1996 24.275C31.2058 24.3197 31.212 24.3644 31.2184 24.4104C31.2238 24.449 31.2292 24.4876 31.2349 24.5274C31.2504 24.7053 31.2464 24.8844 31.2464 25.063C30.5433 25.063 29.8401 25.063 29.1157 25.063C29.1072 24.8946 29.0988 24.7262 29.0901 24.5526C28.9404 21.6924 28.7196 18.8642 28.0215 16.0795C28.0049 16.0128 28.0049 16.0128 27.9878 15.9448C27.8038 15.2141 27.6022 14.4967 27.3284 13.7938C27.2674 13.5843 27.2557 13.4172 27.2729 13.2001C27.4855 12.8742 27.6359 12.8219 28.0215 12.8546Z" fill="#479C62"/>
</g>
<defs>
<clipPath id="clip0_187_101">
<rect width="40.5955" height="40.5955" fill="white" transform="translate(9.71108 9.6936)"/>
</clipPath>
<clipPath id="clip1_187_101">
<rect width="29.4846" height="29.4846" fill="white" transform="translate(15.2372 11.2996)"/>
</clipPath>
</defs>
</svg>
