<svg width="19" height="19" viewBox="0 0 19 19" fill="none" xmlns="http://www.w3.org/2000/svg">
<g clip-path="url(#clip0_151_3130)">
<path d="M8.1879 0.995821C8.40619 1.11592 8.46972 1.33188 8.55903 1.55136C8.58506 1.61446 8.58506 1.61446 8.61161 1.67883C9.06334 2.79458 9.41263 3.94923 9.6632 5.12666C9.72933 5.02746 9.77637 4.93503 9.82543 4.82685C10.4412 3.49125 11.3346 2.3226 12.7421 1.77145C12.9425 1.69956 13.1456 1.64006 13.3514 1.58594C13.3953 1.57429 13.4391 1.56264 13.4843 1.55064C14.4982 1.30963 15.6185 1.3368 16.634 1.54906C16.6143 1.79673 16.5649 2.01299 16.4842 2.24752C16.4727 2.28117 16.4612 2.31483 16.4494 2.3495C16.103 3.34425 15.595 4.22154 14.8636 4.97913C14.8419 5.00324 14.8201 5.02734 14.7976 5.05218C13.9871 5.9272 12.6985 6.30517 11.5442 6.38067C11.3628 6.38652 11.1816 6.38767 11.0002 6.38758C10.9759 6.38761 10.9516 6.38763 10.9266 6.38766C10.5721 6.38762 10.2331 6.37037 9.88449 6.3069C9.89115 6.33301 9.8978 6.35912 9.90465 6.38601C9.98819 6.72893 10.0444 7.07353 10.096 7.42247C10.1103 7.51904 10.1251 7.61554 10.1399 7.71204C10.1494 7.77528 10.1589 7.83853 10.1683 7.90178C10.1726 7.92969 10.1769 7.9576 10.1814 7.98636C10.2087 8.17384 10.2243 8.36118 10.2363 8.55021C10.238 8.57573 10.2396 8.60126 10.2413 8.62756C10.2454 8.69001 10.2494 8.75246 10.2533 8.81491C10.2946 8.81476 10.2946 8.81476 10.3368 8.8146C11.0072 8.81216 11.6777 8.81033 12.3481 8.80918C12.6724 8.80861 12.9966 8.80783 13.3208 8.80656C13.6034 8.80546 13.886 8.80475 14.1686 8.8045C14.3183 8.80436 14.4679 8.80402 14.6175 8.80321C14.7584 8.80246 14.8993 8.80223 15.0402 8.80239C15.0918 8.80236 15.1435 8.80215 15.1951 8.80172C15.2658 8.80117 15.3365 8.80137 15.4071 8.8016C15.4466 8.8015 15.4861 8.8014 15.5268 8.8013C15.7153 8.82434 15.831 8.89577 15.9609 9.03159C16.103 9.22902 16.1293 9.38931 16.13 9.62935C16.1303 9.65786 16.1305 9.68637 16.1308 9.71574C16.1311 9.77591 16.1313 9.83608 16.1313 9.89625C16.1315 9.98757 16.1328 10.0788 16.1342 10.1701C16.1344 10.2288 16.1346 10.2875 16.1346 10.3463C16.1352 10.3732 16.1357 10.4001 16.1362 10.4279C16.1343 10.651 16.0721 10.8487 15.9141 11.0119C15.7807 11.1256 15.6956 11.1802 15.5226 11.179C15.4929 11.1789 15.4632 11.1788 15.4326 11.1786C15.4015 11.1783 15.3705 11.178 15.3385 11.1777C15.3072 11.1775 15.2758 11.1774 15.2436 11.1772C15.1661 11.1768 15.0886 11.1761 15.0112 11.1754C15.0032 11.2345 15.0032 11.2345 14.9951 11.2948C14.8514 12.3589 14.7029 13.4224 14.5525 14.4856C14.5256 14.6762 14.4987 14.8668 14.4721 15.0575C14.4466 15.2401 14.4208 15.4227 14.3948 15.6053C14.3851 15.6733 14.3756 15.7414 14.3661 15.8094C14.2416 16.706 14.2416 16.706 13.9785 17.0766C13.9579 17.1085 13.9374 17.1405 13.9162 17.1734C13.6999 17.3955 13.4055 17.5453 13.0959 17.5655C13.04 17.566 12.9841 17.5661 12.9282 17.5659C12.8973 17.5661 12.8663 17.5663 12.8344 17.5664C12.731 17.5669 12.6275 17.5668 12.5241 17.5668C12.4498 17.567 12.3755 17.5672 12.3012 17.5675C12.0996 17.5682 11.8979 17.5684 11.6963 17.5684C11.5702 17.5685 11.4442 17.5686 11.3181 17.5688C10.8782 17.5695 10.4382 17.5698 9.99824 17.5697C9.58849 17.5697 9.17874 17.5705 8.76899 17.5716C8.41692 17.5726 8.06484 17.573 7.71277 17.5729C7.50261 17.5729 7.29247 17.5731 7.08232 17.5739C6.88457 17.5746 6.68684 17.5746 6.48909 17.5741C6.41669 17.574 6.34428 17.5742 6.27188 17.5746C5.74293 17.5777 5.34004 17.5352 4.94224 17.1504C4.63523 16.7957 4.59251 16.3429 4.53002 15.8938C4.52276 15.843 4.51548 15.7922 4.50817 15.7414C4.48859 15.6047 4.46933 15.468 4.45013 15.3313C4.42993 15.1879 4.40944 15.0445 4.38899 14.9011C4.35475 14.6608 4.32071 14.4204 4.28679 14.18C4.23892 13.8408 4.19069 13.5015 4.1424 13.1623C4.10894 12.9272 4.07557 12.692 4.04222 12.4569C4.03413 12.3999 4.02605 12.3429 4.01796 12.2859C3.99494 12.1238 3.97198 11.9616 3.94911 11.7995C3.93885 11.7268 3.92854 11.6542 3.91823 11.5815C3.91218 11.5385 3.90614 11.4956 3.89991 11.4513C3.89196 11.3951 3.89196 11.3951 3.88386 11.3377C3.87265 11.2492 3.87265 11.2492 3.87265 11.1754C3.82729 11.1771 3.78193 11.1788 3.7352 11.1806C3.67498 11.182 3.61476 11.1833 3.55454 11.1846C3.52473 11.1858 3.49492 11.1871 3.4642 11.1884C3.26098 11.1917 3.14901 11.1627 2.98747 11.0279C2.79273 10.8223 2.75471 10.6126 2.75508 10.3366C2.75492 10.3098 2.75476 10.283 2.7546 10.2553C2.75439 10.1988 2.75437 10.1424 2.75453 10.0859C2.75465 10.0003 2.75378 9.91467 2.75285 9.82903C2.75276 9.77386 2.75274 9.71867 2.75277 9.6635C2.75243 9.63828 2.75209 9.61307 2.75174 9.58709C2.75378 9.37147 2.79938 9.16583 2.94021 8.99716C2.96189 8.98038 2.98357 8.9636 3.00591 8.9463C3.02759 8.92886 3.04927 8.91141 3.07161 8.89343C3.20313 8.80704 3.32044 8.81035 3.47318 8.81048C3.52081 8.81042 3.56845 8.81037 3.61752 8.81032C3.67042 8.81045 3.72332 8.81059 3.77622 8.81072C3.83183 8.81073 3.88744 8.81073 3.94305 8.81071C4.09415 8.8107 4.24525 8.81091 4.39635 8.81117C4.55422 8.8114 4.71208 8.81142 4.86994 8.81147C5.16893 8.81158 5.46793 8.81188 5.76692 8.81225C6.10729 8.81267 6.44765 8.81287 6.78802 8.81305C7.48824 8.81344 8.18845 8.81409 8.88867 8.81491C8.87456 8.56738 8.86021 8.31986 8.8457 8.07235C8.84081 7.98855 8.83598 7.90474 8.83121 7.82094C8.79871 6.59086 8.79871 6.59086 8.59361 5.38484C8.55296 5.39687 8.51231 5.4089 8.47043 5.42129C7.19054 5.79278 5.79735 5.90237 4.57341 5.27419C4.2004 5.06127 3.88363 4.79879 3.57759 4.49966C3.53052 4.45601 3.53052 4.45601 3.4825 4.41149C2.96826 3.92312 2.51379 3.24119 2.24982 2.58177C2.24982 2.53308 2.24982 2.4844 2.24982 2.43424C3.56383 1.96326 5.03173 1.76716 6.34723 2.34535C6.66675 2.50038 6.9579 2.68447 7.22895 2.91371C7.25805 2.93829 7.28715 2.96287 7.31713 2.9882C7.75642 3.37154 8.0911 3.79353 8.40919 4.27836C8.38905 3.96883 8.32643 3.67188 8.25705 3.37013C8.2514 3.34527 8.24575 3.32042 8.23992 3.2948C8.1061 2.70827 7.95298 2.12666 7.7382 1.56406C7.69697 1.44115 7.68795 1.34511 7.70843 1.21712C7.84455 1.00839 7.94092 0.974891 8.1879 0.995821ZM8.44608 4.31525C8.48296 4.38901 8.48296 4.38901 8.48296 4.38901L8.44608 4.31525Z" fill="#FFA242"/>
<path d="M3.45221 8.81007C3.49546 8.80993 3.53871 8.80978 3.58327 8.80964C3.65489 8.80969 3.65489 8.80969 3.72796 8.80974C3.77901 8.80964 3.83006 8.80953 3.88112 8.8094C4.02174 8.80911 4.16235 8.80904 4.30297 8.80901C4.4545 8.80894 4.60603 8.80867 4.75756 8.80842C5.08905 8.80792 5.42053 8.80769 5.75201 8.80753C5.95892 8.80743 6.16582 8.80727 6.37272 8.80711C6.94536 8.80666 7.518 8.80628 8.09064 8.80615C8.12731 8.80615 8.16397 8.80614 8.20174 8.80613C8.25686 8.80612 8.25686 8.80612 8.3131 8.8061C8.38757 8.80609 8.46205 8.80607 8.53652 8.80605C8.59193 8.80604 8.59193 8.80604 8.64846 8.80603C9.24718 8.80588 9.8459 8.80524 10.4446 8.80438C11.059 8.80351 11.6735 8.80305 12.2879 8.803C12.633 8.80297 12.978 8.80276 13.3231 8.80209C13.617 8.80152 13.9108 8.80133 14.2046 8.80164C14.3545 8.80178 14.5045 8.80175 14.6544 8.80123C14.7917 8.80076 14.9289 8.8008 15.0662 8.80125C15.1394 8.80136 15.2126 8.80092 15.2858 8.80046C15.3511 8.80083 15.3511 8.80083 15.4177 8.8012C15.4552 8.80118 15.4927 8.80115 15.5314 8.80113C15.717 8.82509 15.8329 8.89774 15.9609 9.0316C16.1031 9.22903 16.1293 9.38932 16.1301 9.62936C16.1303 9.65787 16.1305 9.68638 16.1308 9.71575C16.1312 9.77592 16.1313 9.83609 16.1313 9.89626C16.1315 9.98758 16.1328 10.0788 16.1342 10.1701C16.1344 10.2288 16.1346 10.2876 16.1347 10.3463C16.1352 10.3732 16.1357 10.4001 16.1363 10.4279C16.1343 10.651 16.0722 10.8487 15.9141 11.0119C15.759 11.1442 15.6721 11.18 15.4719 11.1803C15.4068 11.1806 15.4068 11.1806 15.3403 11.1808C15.2681 11.1808 15.2681 11.1808 15.1944 11.1808C15.1431 11.1809 15.0918 11.1811 15.0404 11.1812C14.8989 11.1816 14.7574 11.1817 14.6158 11.1818C14.4634 11.182 14.3109 11.1823 14.1584 11.1827C13.79 11.1834 13.4215 11.1838 13.0531 11.1841C12.8797 11.1842 12.7063 11.1844 12.5329 11.1846C11.9567 11.1853 11.3805 11.1858 10.8043 11.1861C10.6547 11.1861 10.5051 11.1862 10.3555 11.1863C10.2997 11.1863 10.2997 11.1863 10.2428 11.1863C9.64028 11.1866 9.03774 11.1876 8.4352 11.1888C7.81695 11.19 7.1987 11.1907 6.58045 11.1908C6.23318 11.1909 5.88591 11.1912 5.53864 11.1921C5.24292 11.1929 4.94722 11.1932 4.65151 11.1929C4.50059 11.1927 4.34968 11.1928 4.19876 11.1935C4.06061 11.1941 3.92248 11.1941 3.78433 11.1935C3.71065 11.1934 3.63697 11.194 3.56329 11.1946C3.16501 11.1917 3.16501 11.1917 2.98749 11.0279C2.79276 10.8223 2.75474 10.6126 2.7551 10.3366C2.75495 10.3098 2.75479 10.283 2.75463 10.2553C2.75441 10.1989 2.75439 10.1424 2.75456 10.0859C2.75467 10.0003 2.75381 9.91467 2.75287 9.82904C2.75279 9.77386 2.75276 9.71868 2.7528 9.6635C2.75246 9.63829 2.75212 9.61308 2.75177 9.5871C2.7538 9.37147 2.79941 9.16584 2.94024 8.99717C2.96192 8.98038 2.9836 8.9636 3.00593 8.94631C3.03845 8.92014 3.03845 8.92014 3.07163 8.89343C3.19692 8.81114 3.30674 8.81025 3.45221 8.81007Z" fill="#FFC268"/>
<path d="M4.67632 11.2447C4.70968 11.2443 4.74305 11.2438 4.77742 11.2434C4.83267 11.2435 4.83267 11.2435 4.88904 11.2437C4.92842 11.2434 4.9678 11.2431 5.00719 11.2427C5.11566 11.2418 5.22414 11.2416 5.33261 11.2415C5.44951 11.2413 5.5664 11.2404 5.6833 11.2397C5.93901 11.2381 6.19472 11.2375 6.45043 11.237C6.61004 11.2367 6.76965 11.2362 6.92926 11.2357C7.37101 11.2343 7.81276 11.2331 8.2545 11.2328C8.28278 11.2327 8.31106 11.2327 8.3402 11.2327C8.38273 11.2326 8.38273 11.2326 8.42611 11.2326C8.48356 11.2326 8.54101 11.2325 8.59846 11.2325C8.6412 11.2324 8.6412 11.2324 8.68481 11.2324C9.14668 11.2319 9.60854 11.23 10.0704 11.2273C10.5444 11.2247 11.0184 11.2233 11.4923 11.2231C11.7585 11.223 12.0247 11.2224 12.2909 11.2203C12.5176 11.2186 12.7443 11.218 12.9709 11.219C13.0866 11.2194 13.2023 11.2193 13.3179 11.2177C13.4238 11.2163 13.5297 11.2164 13.6356 11.2178C13.692 11.2181 13.7485 11.2168 13.805 11.2154C13.8554 11.2165 13.8554 11.2165 13.9068 11.2176C13.9357 11.2176 13.9646 11.2175 13.9944 11.2174C14.1377 11.2906 14.227 11.5124 14.3258 11.9211C14.4354 12.5239 14.4557 13.0133 14.4563 13.7461C14.4565 13.8332 14.4566 13.9202 14.4568 14.0099C14.4571 14.1936 14.4573 14.3773 14.4573 14.5611C14.4574 14.8399 14.4584 15.1185 14.4595 15.3972C14.4597 15.5765 14.4598 15.7557 14.4598 15.935C14.4602 16.0172 14.4606 16.0995 14.4611 16.1843C14.4596 16.8655 14.4116 17.4691 14.2897 17.9674C14.17 18.3712 14.103 18.4805 13.9486 18.4816C13.8983 18.4824 13.8983 18.4824 13.847 18.4831C13.7913 18.4831 13.7913 18.4831 13.7345 18.4831C13.6949 18.4834 13.6553 18.4839 13.6157 18.4843C13.5065 18.4855 13.3973 18.4859 13.2882 18.4862C13.1705 18.4866 13.0529 18.4877 12.9353 18.4887C12.6511 18.4909 12.3669 18.492 12.0826 18.493C11.9489 18.4935 11.8151 18.4941 11.6814 18.4947C11.2369 18.4966 10.7924 18.4983 10.3479 18.4991C10.2325 18.4993 10.1171 18.4995 10.0017 18.4997C9.95863 18.4998 9.95863 18.4998 9.91473 18.4999C9.44992 18.5008 8.98511 18.5037 8.5203 18.5073C8.04337 18.5111 7.56644 18.5131 7.08951 18.5135C6.82161 18.5137 6.55372 18.5147 6.28583 18.5176C6.05771 18.52 5.8296 18.5209 5.60148 18.5198C5.48506 18.5193 5.36864 18.5195 5.25222 18.5217C5.14565 18.5237 5.03909 18.5236 4.93252 18.5218C4.87569 18.5214 4.81885 18.5233 4.76201 18.5252C4.45477 18.5164 4.45477 18.5164 4.31783 18.0161C4.1676 17.3885 4.13828 16.7483 4.13856 15.9055C4.13844 15.8236 4.13831 15.7417 4.13819 15.6574C4.13803 15.4849 4.13801 15.3125 4.13813 15.1401C4.13822 14.8786 4.13756 14.6173 4.13684 14.3558C4.13677 14.1873 4.13675 14.0189 4.13678 13.8504C4.13652 13.7734 4.13626 13.6964 4.13599 13.6171C4.13755 12.9588 4.17274 12.3309 4.28137 11.816C4.2981 11.7647 4.31482 11.7135 4.33205 11.6607C4.35714 11.5808 4.35714 11.5808 4.38273 11.4992C4.47938 11.248 4.5641 11.2453 4.67632 11.2447Z" fill="#FFA242"/>
</g>
<path d="M8.1879 0.995852C8.40619 1.11595 8.46972 1.33191 8.55903 1.55139C8.58506 1.61449 8.58506 1.61449 8.61161 1.67886C9.06334 2.79461 9.41263 3.94926 9.6632 5.12669C9.72933 5.02749 9.77637 4.93506 9.82543 4.82688C10.4412 3.49128 11.3346 2.32263 12.7421 1.77148C12.9425 1.6996 13.1456 1.64009 13.3514 1.58597C13.3953 1.57432 13.4391 1.56268 13.4843 1.55067C14.4982 1.30967 15.6185 1.33683 16.634 1.54909C16.6143 1.79676 16.5649 2.01302 16.4842 2.24755C16.4727 2.2812 16.4612 2.31486 16.4494 2.34953C16.103 3.34428 15.595 4.22157 14.8636 4.97916C14.8419 5.00327 14.8201 5.02737 14.7976 5.05221C13.9871 5.92723 12.6985 6.3052 11.5442 6.3807C11.3628 6.38655 11.1816 6.3877 11.0002 6.38761C10.9759 6.38764 10.9516 6.38767 10.9266 6.38769C10.5721 6.38765 10.2331 6.3704 9.88449 6.30693C9.89115 6.33304 9.8978 6.35915 9.90465 6.38605C9.98818 6.72896 10.0444 7.07357 10.096 7.4225C10.1103 7.51907 10.1251 7.61557 10.1399 7.71207C10.1494 7.77531 10.1589 7.83856 10.1683 7.90181C10.1726 7.92972 10.1769 7.95763 10.1814 7.98639C10.2217 8.2636 10.2345 8.5323 10.2533 8.81494C9.80298 8.81494 9.35265 8.81494 8.88867 8.81494C8.88239 8.69851 8.87612 8.58207 8.86965 8.46211C8.82688 7.68852 8.7805 6.91624 8.69964 6.14557C8.69647 6.11507 8.69329 6.08456 8.69002 6.05313C8.66116 5.71559 8.66116 5.71559 8.59361 5.38487C8.55296 5.3969 8.51231 5.40893 8.47043 5.42132C7.19054 5.79281 5.79735 5.9024 4.57341 5.27422C4.2004 5.06131 3.88363 4.79882 3.57759 4.49969C3.53052 4.45604 3.53052 4.45604 3.4825 4.41152C2.96826 3.92315 2.51379 3.24122 2.24982 2.5818C2.24982 2.53311 2.24982 2.48443 2.24982 2.43427C3.56383 1.9633 5.03173 1.76719 6.34723 2.34538C6.66675 2.50041 6.9579 2.6845 7.22895 2.91374C7.25805 2.93832 7.28715 2.9629 7.31713 2.98823C7.75642 3.37157 8.0911 3.79356 8.40919 4.2784C8.38905 3.96886 8.32643 3.67191 8.25705 3.37016C8.2514 3.34531 8.24575 3.32045 8.23992 3.29484C8.1061 2.7083 7.95298 2.12669 7.7382 1.56409C7.69697 1.44118 7.68795 1.34514 7.70843 1.21715C7.84455 1.00842 7.94092 0.974922 8.1879 0.995852ZM8.44608 4.31528C8.48296 4.38904 8.48296 4.38904 8.48296 4.38904L8.44608 4.31528Z" fill="#6AF2A2"/>
<path d="M7.22896 2.91376C7.2726 2.95063 7.2726 2.95063 7.31713 2.98825C7.67037 3.29651 7.97181 3.63237 8.24322 4.01332C8.26183 4.03933 8.28044 4.06534 8.29961 4.09213C8.46259 4.32645 8.56318 4.54567 8.60052 4.83165C8.60637 4.87425 8.61222 4.91685 8.61824 4.96074C8.63057 5.09068 8.63265 5.21758 8.63049 5.34801C8.42228 5.44571 8.21612 5.50321 7.99196 5.55317C7.95622 5.56114 7.92047 5.56911 7.88365 5.57733C6.70822 5.83073 5.40902 5.80644 4.36288 5.14769C4.0742 4.95848 3.82391 4.74046 3.57759 4.49971C3.53052 4.45607 3.53052 4.45607 3.4825 4.41154C2.96826 3.92317 2.51379 3.24124 2.24982 2.58182C2.24982 2.53313 2.24982 2.48445 2.24982 2.43429C3.89744 1.84374 5.81011 1.71378 7.22896 2.91376Z" fill="#6AF2A2"/>
<path d="M8.18796 0.995852C8.40625 1.11595 8.46978 1.33191 8.55909 1.55139C8.57644 1.59346 8.59379 1.63552 8.61166 1.67886C9.02231 2.69311 9.33007 3.73256 9.58949 4.79475C9.59823 4.83038 9.60698 4.86602 9.61598 4.90273C9.70461 5.27936 9.59599 5.57741 9.47885 5.93811C9.45341 6.02396 9.42915 6.11004 9.40508 6.19629C9.56331 6.22063 9.72153 6.24497 9.88455 6.27005C9.98541 6.74843 10.07 7.22681 10.1378 7.711C10.1522 7.81386 10.167 7.91665 10.1819 8.01945C10.1914 8.08584 10.2008 8.15223 10.2102 8.21863C10.2167 8.26398 10.2167 8.26398 10.2234 8.31026C10.2274 8.33887 10.2313 8.36748 10.2354 8.39696C10.2389 8.42168 10.2424 8.4464 10.246 8.47187C10.2559 8.58582 10.2534 8.70056 10.2534 8.81494C9.80304 8.81494 9.35271 8.81494 8.88872 8.81494C8.8833 8.70707 8.87788 8.59919 8.8723 8.48804C8.77644 6.65617 8.63506 4.84481 8.18796 3.06127C8.17727 3.01859 8.17727 3.01859 8.16638 2.97505C8.04848 2.50706 7.9194 2.04755 7.74404 1.59736C7.70496 1.46321 7.69745 1.35619 7.70848 1.21715C7.84461 1.00842 7.94098 0.974922 8.18796 0.995852Z" fill="#479C62"/>
<defs>
<clipPath id="clip0_151_3130">
<rect width="18.8838" height="18.8838" fill="white"/>
</clipPath>
</defs>
</svg>
